<svg xmlns="http://www.w3.org/2000/svg" width="26.106" height="26.106" viewBox="0 0 26.106 26.106">
  <path id="git" d="M19.053,6a13.053,13.053,0,0,0-3.036,25.748c-.3-.071-.59-.149-.881-.239V28.518A3.98,3.98,0,0,1,14,28.68a2.969,2.969,0,0,1-2.775-2.447,2.536,2.536,0,0,0-.737-1.261c-.384-.343-.565-.343-.567-.461-.006-.247.329-.237.488-.237.816,0,1.436.869,1.722,1.318A2.317,2.317,0,0,0,14,26.886a2.9,2.9,0,0,0,1.2-.214,3.872,3.872,0,0,1,1.245-2.4c-3.061-.612-5.222-2.367-5.222-5.22a5.827,5.827,0,0,1,1.573-3.912,5.314,5.314,0,0,1-.267-1.8,5.923,5.923,0,0,1,.326-2.122A5.808,5.808,0,0,1,16.47,12.9a9.184,9.184,0,0,1,5.166,0,5.808,5.808,0,0,1,3.618-1.677,5.88,5.88,0,0,1,.326,2.122,6.259,6.259,0,0,1-.218,1.855,5.813,5.813,0,0,1,1.524,3.856c0,2.853-2.161,4.609-5.222,5.22a3.87,3.87,0,0,1,1.306,2.938v4.3c-.29.09-.584.169-.881.239A13.053,13.053,0,0,0,19.053,6Zm.91,26.071c-.3.022-.6.035-.91.035C19.359,32.106,19.663,32.093,19.963,32.071Zm1.994-.292a13.148,13.148,0,0,1-1.794.276A13.148,13.148,0,0,0,21.958,31.779Zm-2.9.327c-.306,0-.61-.014-.91-.035C18.443,32.093,18.747,32.106,19.053,32.106Zm-1.11-.051a13.148,13.148,0,0,1-1.794-.276A13.148,13.148,0,0,0,17.943,32.055Zm0,0" transform="translate(-6 -6)" fill="#fff"/>
</svg>
