<svg xmlns="http://www.w3.org/2000/svg" xmlns:xlink="http://www.w3.org/1999/xlink" width="20" height="20" viewBox="0 0 36 36">
  <defs>
    <linearGradient id="linear-gradient" x1="-0.115" y1="-0.089" x2="1.074" y2="1.05" gradientUnits="objectBoundingBox">
      <stop offset="0" stop-color="#33bef0"/>
      <stop offset="1" stop-color="#0a85d9"/>
    </linearGradient>
  </defs>
  <g id="behance-drop" transform="translate(-6 -6)">
    <path id="Caminho_13" data-name="Caminho 13" d="M6,8A2,2,0,0,1,8,6H40a2,2,0,0,1,2,2V40a2,2,0,0,1-2,2H8a2,2,0,0,1-2-2Z" fill="url(#linear-gradient)"/>
    <path id="Caminho_14" data-name="Caminho 14" d="M37,26.526V26a11.071,11.071,0,0,0-.177-2.447A6.17,6.17,0,0,0,34.347,20H35V16H26v4h.85a6.219,6.219,0,0,0-2.707,4.113,4.129,4.129,0,0,0-.75-.8,3.913,3.913,0,0,0,1.021-2.745,4.143,4.143,0,0,0-2.589-4.025A7.845,7.845,0,0,0,18.742,16H11V32h8.027c1.891,0,4.9-.772,5.745-3.439a5.12,5.12,0,0,0,1.1,1.576A7.868,7.868,0,0,0,27.9,31.5a7.583,7.583,0,0,0,2.676.5,7.016,7.016,0,0,0,3.78-1.019A6.058,6.058,0,0,0,36.774,27.9l.551-1.372Zm-21-6.1h1.928c.012,0,1.195.024,1.195.572,0,.664-.755.711-.9.714H16Zm2.336,7.143H15.969V25.715h2.367c1.341,0,1.341.727,1.341,1C19.677,27.529,18.56,27.571,18.336,27.571Zm12.4-4.544a1.014,1.014,0,0,1,.722.314H29.709A1.626,1.626,0,0,1,30.734,23.027Zm1.6,4.029a1,1,0,0,1-.42.49,1.738,1.738,0,0,1-1.021.285,1.588,1.588,0,0,1-1.55-.83h3.02Z" transform="translate(0 0)" opacity="0.05"/>
    <path id="Caminho_15" data-name="Caminho 15" d="M11.5,31.5v-15h7.243a7.392,7.392,0,0,1,2.884.5,3.625,3.625,0,0,1,2.288,3.566,3.311,3.311,0,0,1-1.322,2.8A3.971,3.971,0,0,1,24.5,27c0,3.546-3.441,4.5-5.474,4.5Zm6.836-3.43c.188,0,1.841-.038,1.841-1.356s-1.153-1.5-1.841-1.5H15.469v2.856Zm-.115-5.857c.014,0,1.4-.014,1.4-1.214,0-1.06-1.625-1.072-1.695-1.072H15.5v2.286h2.721ZM30.578,31.5a7.1,7.1,0,0,1-2.5-.468,7.417,7.417,0,0,1-1.869-1.259,5.431,5.431,0,0,1-1.2-1.905A5.452,5.452,0,0,1,24.5,25.5a5.813,5.813,0,0,1,6.234-6H26.5v-3h8v3H30.734a5.486,5.486,0,0,1,5.6,4.16A10.68,10.68,0,0,1,36.5,26v.5H28.651a2.1,2.1,0,0,0,2.238,1.83,2.24,2.24,0,0,0,1.285-.361,1.476,1.476,0,0,0,.6-.68l.141-.265h3.672l-.275.686a5.581,5.581,0,0,1-2.214,2.845A6.524,6.524,0,0,1,30.578,31.5Zm1.789-7.659a1.877,1.877,0,0,0-1.633-1.314,2.012,2.012,0,0,0-1.986,1.314Z" transform="translate(0 0)" opacity="0.07"/>
    <path id="Caminho_16" data-name="Caminho 16" d="M27,17h7v2H27Zm-5.488,6.428a2.958,2.958,0,0,0,1.9-2.857c0-3.617-3.952-3.57-4.683-3.57H12V31h7.025C19.61,31,24,30.835,24,27A3.447,3.447,0,0,0,21.512,23.428Zm-6.512-4h2.928c.292,0,2.195.1,2.195,1.572a1.8,1.8,0,0,1-1.9,1.714H15Zm3.336,9.143H14.969V24.715h3.367a2.057,2.057,0,0,1,2.341,2C20.677,28.476,18.628,28.571,18.336,28.571Zm14.1-.176a2.753,2.753,0,0,1-1.549.436A2.689,2.689,0,0,1,28.1,26H36a10.185,10.185,0,0,0-.155-2.236A4.969,4.969,0,0,0,30.734,20,5.352,5.352,0,0,0,25,25.5a4.973,4.973,0,0,0,.467,2.171,4.9,4.9,0,0,0,1.084,1.736,6.87,6.87,0,0,0,1.7,1.157A6.564,6.564,0,0,0,30.578,31a6.017,6.017,0,0,0,3.253-.868,5.126,5.126,0,0,0,2.014-2.606H33.212A1.972,1.972,0,0,1,32.438,28.4Zm-1.7-6.368c1.518,0,2.168,1.592,2.322,2.314H28.1A2.627,2.627,0,0,1,30.734,22.027Z" transform="translate(0 0)" fill="#fff"/>
  </g>
</svg>
