<svg xmlns="http://www.w3.org/2000/svg" width="20" height="22" viewBox="0 0 36 38">
  <g id="git_drop" data-name="git drop" transform="translate(-77 -34)">
    <path id="Caminho_12" data-name="Caminho 12" d="M14.357,40a1.7,1.7,0,0,0,.948-1.556V33.869a5.084,5.084,0,0,1,.031-.52l-.031.01H12.486a2.775,2.775,0,0,1-2.66-1.526c-.547-1.1-.783-2.966-2.192-3.983-.235-.169-.076-.424.391-.424a4.3,4.3,0,0,1,2.112,1.7,3.274,3.274,0,0,0,2.663,1.7c1.944,0,2.99-.106,3.617-.47a3.729,3.729,0,0,1,2.8-2.072v-.02c-4.436-.156-7.27-1.751-8.59-4.218a43.938,43.938,0,0,0-6.79.6c-.046-.278-.086-.556-.119-.838a44.733,44.733,0,0,1,6.533-.6,7.259,7.259,0,0,1-.229-.722,46.914,46.914,0,0,0-6.408.083c-.015-.281-.037-.563-.04-.848a47.589,47.589,0,0,1,6.276-.093,9.1,9.1,0,0,1-.1-1.308,7.693,7.693,0,0,1,1.33-4.238c-.391-1.44-.939-4.493.156-5.6a6.26,6.26,0,0,1,4.3,1.781A10.8,10.8,0,0,1,20,11.323a10.185,10.185,0,0,1,4.384.934,6.253,6.253,0,0,1,4.3-1.781c1.174,1.185.547,4.238.156,5.6a6.875,6.875,0,0,1,1.25,4.238,8.907,8.907,0,0,1-.086,1.192,48.223,48.223,0,0,1,6.42.086c0,.288-.024.566-.04.848a46.88,46.88,0,0,0-6.539-.076,7.392,7.392,0,0,1-.257.831,44.992,44.992,0,0,1,6.692.586q-.05.422-.119.834a44.083,44.083,0,0,0-6.949-.576c-1.3,2.437-4.084,4.029-8.434,4.215v.026c2.036,0,3.913,3.3,3.913,5.6v4.575A1.7,1.7,0,0,0,25.643,40C32.812,37.431,38,30.108,38,21.493,38,10.744,29.926,2,20,2S2,10.744,2,21.493C2,30.108,7.188,37.431,14.357,40Zm0,0" transform="translate(75 32)" fill="#fff"/>
  </g>
</svg>
