<svg xmlns="http://www.w3.org/2000/svg" width="20" height="20" viewBox="0 0 36 36">
  <g id="linkedin-drop" transform="translate(-6 -6)">
    <path id="Caminho_6" data-name="Caminho 6" d="M42,37a5,5,0,0,1-5,5H11a5,5,0,0,1-5-5V11a5,5,0,0,1,5-5H37a5,5,0,0,1,5,5Z" fill="#0078d4"/>
    <path id="Caminho_7" data-name="Caminho 7" d="M30,37V26.9c0-1.689-.819-2.7-2.192-2.7a1.869,1.869,0,0,0-1.779,1.364A6.709,6.709,0,0,0,26,26.681L26,37H19V18h7v1.061A6.44,6.44,0,0,1,29.738,18C34.285,18,37,21.093,37,26.274V37ZM11,37V18h3.457A3.365,3.365,0,0,1,11,14.5,3.392,3.392,0,0,1,14.514,11,3.378,3.378,0,0,1,18,14.479,3.4,3.4,0,0,1,14.485,18H18V37Z" opacity="0.05"/>
    <path id="Caminho_8" data-name="Caminho 8" d="M30.5,36.5V26.9c0-1.973-1.031-3.2-2.692-3.2a2.384,2.384,0,0,0-2.243,1.677,6.31,6.31,0,0,0-.067,1.326l0,9.794h-6v-18h6v1.638A5.564,5.564,0,0,1,29.738,18.5c4.233,0,6.761,2.906,6.761,7.774V36.5Zm-19,0v-18h6v18Zm2.957-19a2.882,2.882,0,0,1-2.957-3,2.908,2.908,0,0,1,3.014-3A2.9,2.9,0,0,1,17.5,14.489,2.912,2.912,0,0,1,14.485,17.5Z" opacity="0.07"/>
    <path id="Caminho_9" data-name="Caminho 9" d="M12,19h5V36H12Zm2.485-2h-.028A2.393,2.393,0,0,1,12,14.5,2.4,2.4,0,0,1,14.514,12,2.4,2.4,0,0,1,17,14.5,2.407,2.407,0,0,1,14.485,17ZM36,36H31V26.9c0-2.2-1.225-3.7-3.192-3.7a2.867,2.867,0,0,0-2.707,1.99A7.213,7.213,0,0,0,25,27v9H20V19h5v2.616A5.058,5.058,0,0,1,29.738,19C33.316,19,36,21.25,36,26.274V36Z" fill="#fff"/>
  </g>
</svg>
