<svg xmlns="http://www.w3.org/2000/svg" width="20" height="20" viewBox="0 0 36 36">
  <g id="mail-drop" transform="translate(-6 -6)">
    <path id="Caminho_17" data-name="Caminho 17" d="M34,42H14a8.009,8.009,0,0,1-8-8V14a8.009,8.009,0,0,1,8-8H34a8.009,8.009,0,0,1,8,8V34A8.009,8.009,0,0,1,34,42Z" fill="#1e88e5"/>
    <path id="Caminho_18" data-name="Caminho 18" d="M35.926,17.488,29.414,24l6.511,6.511A1.96,1.96,0,0,0,36,30V18A2.016,2.016,0,0,0,35.926,17.488ZM26.688,23.9l7.824-7.825A2.016,2.016,0,0,0,34,16H14a2.017,2.017,0,0,0-.512.074L21.312,23.9A3.808,3.808,0,0,0,26.688,23.9ZM24,27.009a5.777,5.777,0,0,1-3.99-1.6l-6.522,6.522A2.017,2.017,0,0,0,14,32H34a2.017,2.017,0,0,0,.512-.074L27.99,25.4A5.777,5.777,0,0,1,24,27.009ZM12.074,17.488A2.016,2.016,0,0,0,12,18V30a2.016,2.016,0,0,0,.074.512L18.586,24Z" fill="#fff"/>
  </g>
</svg>
