<svg xmlns="http://www.w3.org/2000/svg" width="29.23" height="41.39" viewBox="0 0 29.23 41.39">
  <path id="css" d="M19.67,9.242l2.66,29.834L34.267,42.39l11.97-3.318L48.9,9.242ZM42.487,25.887,41.713,33.1l0,.618L34.285,35.8h0l-.006,0-7.49-2.052-.507-5.717h3.673l.26,2.89,4.071,1.086V32l4.086-1.152.431-4.8H30.261l-.073-.776-.167-1.862-.087-.988h9.194l.334-3.627h-14l-.074-.854-.167-1.988-.087-1.115H43.461l-.088,1.1-.885,9.941m.04-20.478L40.17,2.648h2.357V1H37.252V2.438l2.766,2.518H37.252V6.6h5.275Zm-6.264,0L34.019,2.648h2.244V1H31.318V2.438l2.549,2.518H31.318V6.6h4.945Zm-5.934-.453H27.691V2.648h2.637V1H25.713V6.6h4.616Z" transform="translate(-19.67 -1)" fill="#1572b6"/>
</svg>
