<svg xmlns="http://www.w3.org/2000/svg" width="32" height="32" viewBox="0 0 32 32">
  <path id="git" d="M22,6a16,16,0,0,0-3.721,31.56c-.363-.087-.724-.183-1.079-.293V33.6a4.879,4.879,0,0,1-1.4.2,3.639,3.639,0,0,1-3.4-3,3.109,3.109,0,0,0-.9-1.546c-.471-.421-.692-.421-.695-.565-.007-.3.4-.291.6-.291,1,0,1.76,1.065,2.111,1.615A2.84,2.84,0,0,0,15.8,31.6a3.548,3.548,0,0,0,1.474-.262A4.747,4.747,0,0,1,18.8,28.4c-3.752-.75-6.4-2.9-6.4-6.4a7.143,7.143,0,0,1,1.928-4.8A6.514,6.514,0,0,1,14,15a7.26,7.26,0,0,1,.4-2.6,7.119,7.119,0,0,1,4.435,2.055,11.257,11.257,0,0,1,6.332,0A7.119,7.119,0,0,1,29.6,12.4,7.207,7.207,0,0,1,30,15a7.672,7.672,0,0,1-.267,2.274A7.126,7.126,0,0,1,31.6,22c0,3.5-2.649,5.649-6.4,6.4A4.744,4.744,0,0,1,26.8,32v5.267c-.356.111-.716.207-1.079.293A16,16,0,0,0,22,6Zm1.115,31.957c-.368.026-.74.043-1.115.043C22.375,38,22.748,37.983,23.115,37.957ZM25.56,37.6a16.116,16.116,0,0,1-2.2.339A16.116,16.116,0,0,0,25.56,37.6ZM22,38c-.375,0-.748-.017-1.115-.043C21.252,37.983,21.625,38,22,38Zm-1.361-.063a16.116,16.116,0,0,1-2.2-.339A16.116,16.116,0,0,0,20.639,37.937Zm0,0" transform="translate(-6 -6)" fill="#fff"/>
</svg>
