<svg xmlns="http://www.w3.org/2000/svg" width="29.43" height="41.39" viewBox="0 0 29.43 41.39">
  <path id="html" d="M19.569,10.03l2.678,29.78,12.018,3.207,12.052-3.146L49,10.03Zm23.859,6.78-.168,1.932-.074.893h-14.1l.337,3.974H42.851l-.09.739L41.9,33.922l-.064.56-7.548,2.031v0l-.009,0-7.543-1.959-.512-5.648h3.7l.262,2.8,4.1,1.04,0-.077v0l4.111-.877.429-4.547H26.055l-.905-10.212-.088-1.048H43.516ZM22.347,1.627h1.862v1.84h1.7V1.627h1.862V7.2H25.912V5.333h-1.7V7.2H22.347V1.627Zm7.876,1.848H28.584V1.627h5.142V3.475h-1.64V7.2H30.223Zm4.318-1.848h1.941l1.195,1.958L38.87,1.627h1.942V7.2H38.958V4.437L37.677,6.418h-.032L36.363,4.437V7.2H34.541V1.627Zm7.2,0H43.6v3.73h2.619V7.2H41.74Z" transform="translate(-19.569 -1.627)" fill="#e44d26"/>
</svg>
