<svg xmlns="http://www.w3.org/2000/svg" width="40" height="40" viewBox="0 0 40 40">
  <path id="javascript" d="M2,1V41H42V1ZM23.158,35.084a4.73,4.73,0,0,1-3.023,2.368,7.273,7.273,0,0,1-5.354-.659,6.021,6.021,0,0,1-2.208-2.528L15.619,32.4a1.928,1.928,0,0,1,.213.343,3.217,3.217,0,0,0,1.382,1.435c.647.221,2.068.362,2.616-.777.335-.579.228-2.441.228-4.5,0-3.237.015-6.46.015-9.66H23.82c0,3.52.019,6.854,0,10.289.008,2.106.191,3.983-.662,5.556ZM38.7,34.026c-1.3,4.455-8.564,4.6-11.466,1.656a6.77,6.77,0,0,1-1.363-1.854c1.542-.887,1.542-.887,3.043-1.755A4.292,4.292,0,0,0,31.84,34.3c1.839.225,3.69-.407,3.275-2.361-.427-1.6-3.766-1.984-6.039-3.69a5.244,5.244,0,0,1-.952-7.467A5.353,5.353,0,0,1,30.964,19.1l1.18-.153a5.649,5.649,0,0,1,4.722,1.714,7.478,7.478,0,0,1,.967,1.294c-1.207.769-1.2.762-2.932,1.881a2.79,2.79,0,0,0-1.63-1.512,1.928,1.928,0,0,0-2.536,1.089,2.068,2.068,0,0,0,.073,1.173c.407.929,1.774,1.333,3,1.9,3.53,1.432,4.722,2.967,5.015,4.794a5.5,5.5,0,0,1-.122,2.746Z" transform="translate(-2 -1)" fill="#f0db4f"/>
</svg>
