<svg xmlns="http://www.w3.org/2000/svg" width="60.117" height="60.038" viewBox="0 0 40.117 40.038">
  <path id="photoshop" d="M16.679,13.932a8.877,8.877,0,0,0-3.585-.007c0,2.167,0,4.275.012,6.384a.425.425,0,0,0,.268.31,6.726,6.726,0,0,0,3.958-.419,3.336,3.336,0,0,0,1.8-3.532A3.005,3.005,0,0,0,16.679,13.932Zm24.438,7.115V1.728c0-.667.007-.728-.641-.728H1.789C1.159,1,1,1.06,1,1.7V40.383c0,.643.08.643.7.643,12.912,0,25.863,0,38.775.012.5,0,.635-.133.634-.624-.017-6.456,0-12.913,0-19.368ZM18.624,22.906a13.157,13.157,0,0,1-5.525.518V30.61H9.6v-.446c0-6.016-.028-12.031-.045-18.047,0-.5.077-.741.64-.8a23.712,23.712,0,0,1,7.929.042c2.836.664,4.471,2.539,4.595,5.129.154,3.207-1.256,5.4-4.092,6.416Zm14.108,4.061a3.933,3.933,0,0,1-2.87,3.627A9.473,9.473,0,0,1,23.1,30.31c-.364-.145-.434-.328-.314-.7.219-.677.379-1.373.548-2a26.139,26.139,0,0,0,2.759.783,6.294,6.294,0,0,0,2.025-.057A1.291,1.291,0,0,0,29.242,27.2a1.438,1.438,0,0,0-.67-1.559c-.456-.274-.958-.471-1.44-.7a20.1,20.1,0,0,1-2.315-1.124,3.871,3.871,0,0,1-.02-6.494,6.1,6.1,0,0,1,3.3-1.028,8.426,8.426,0,0,1,4.068.835l-.7,2.48a11.2,11.2,0,0,0-1.614-.552,7.564,7.564,0,0,0-1.976-.134,1.4,1.4,0,0,0-1.386,1.423,1.125,1.125,0,0,0,.538,1.033c.53.309,1.093.563,1.651.821.6.279,1.241.494,1.822.813a3.925,3.925,0,0,1,2.226,3.955Z" transform="translate(-1 -1)" fill="#80b5e2" fill-rule="evenodd"/>
</svg>
