<svg xmlns="http://www.w3.org/2000/svg" width="63.8" height="59.112" viewBox="0 0 43.8 39.112">
  <path id="react" d="M38.448,21.079c-.77-.28-1.574-.56-2.414-.8.21-.84.385-1.679.525-2.484.735-4.618-.07-7.871-2.309-9.131a4.346,4.346,0,0,0-2.239-.56c-2.449,0-5.562,1.819-8.711,4.863C20.151,9.919,17.038,8.1,14.589,8.1a4.346,4.346,0,0,0-2.239.56c-2.239,1.294-3.044,4.548-2.309,9.131.14.8.315,1.644.525,2.484a24.4,24.4,0,0,0-2.414.8C3.779,22.758,1.4,25.067,1.4,27.656s2.414,4.9,6.752,6.577c.77.28,1.574.56,2.414.8-.21.84-.385,1.679-.525,2.484-.735,4.618.07,7.871,2.309,9.131a4.346,4.346,0,0,0,2.239.56c2.484,0,5.6-1.819,8.711-4.863,3.149,3.044,6.262,4.863,8.711,4.863a4.346,4.346,0,0,0,2.239-.56c2.239-1.294,3.044-4.548,2.309-9.131-.14-.8-.315-1.644-.525-2.484a24.4,24.4,0,0,0,2.414-.8c4.373-1.679,6.752-3.988,6.752-6.577S42.821,22.758,38.448,21.079ZM33.27,10.409c1.434.84,1.924,3.428,1.329,7.1a21.067,21.067,0,0,1-.49,2.309,41.562,41.562,0,0,0-5.772-.875A50.476,50.476,0,0,0,24.7,14.4c2.589-2.554,5.213-4.3,7.347-4.3A2.363,2.363,0,0,1,33.27,10.409ZM29.352,31.154c-.63,1.119-1.364,2.239-2.134,3.358-1.294.1-2.589.14-3.918.14-1.364,0-2.659-.035-3.918-.14q-1.154-1.679-2.1-3.358c-.665-1.154-1.294-2.344-1.854-3.5.56-1.154,1.189-2.344,1.854-3.5.63-1.119,1.364-2.239,2.134-3.358,1.294-.1,2.589-.14,3.918-.14,1.364,0,2.659.035,3.918.14q1.154,1.679,2.1,3.358c.665,1.154,1.294,2.344,1.854,3.5C30.612,28.811,30.017,29.965,29.352,31.154ZM32.256,30c.525,1.224.945,2.414,1.329,3.6-1.189.28-2.449.49-3.778.665.42-.665.875-1.364,1.259-2.1.42-.735.8-1.469,1.189-2.169ZM23.3,39.481c-.84-.91-1.644-1.889-2.414-2.9.8.035,1.609.07,2.414.07s1.609-.035,2.414-.07C24.944,37.592,24.14,38.571,23.3,39.481Zm-6.507-5.248c-1.329-.175-2.589-.385-3.778-.665.385-1.154.8-2.379,1.329-3.6.385.7.77,1.434,1.189,2.134.42.77.84,1.434,1.259,2.134Zm-2.449-8.921c-.525-1.224-.945-2.414-1.329-3.6,1.189-.28,2.449-.49,3.778-.665-.42.665-.875,1.364-1.259,2.1C15.114,23.878,14.729,24.612,14.344,25.312ZM23.3,15.831c.84.91,1.644,1.889,2.414,2.9-.8-.035-1.609-.07-2.414-.07s-1.609.035-2.414.07C21.656,17.721,22.46,16.741,23.3,15.831Zm7.766,7.347-1.259-2.1c1.329.175,2.589.385,3.778.665-.385,1.154-.8,2.379-1.329,3.6C31.871,24.612,31.486,23.878,31.066,23.178ZM12,17.511c-.595-3.673-.1-6.262,1.329-7.1a2.363,2.363,0,0,1,1.224-.315c2.1,0,4.723,1.714,7.347,4.3a45.987,45.987,0,0,0-3.638,4.548,47.564,47.564,0,0,0-5.772.875c-.21-.8-.35-1.574-.49-2.309ZM3.359,27.656c0-1.644,1.994-3.393,5.492-4.688a20.976,20.976,0,0,1,2.239-.735,50.992,50.992,0,0,0,2.1,5.458,44.084,44.084,0,0,0-2.1,5.423C6.263,31.714,3.359,29.615,3.359,27.656ZM13.33,44.9c-1.434-.84-1.924-3.428-1.329-7.1a21.066,21.066,0,0,1,.49-2.309,41.562,41.562,0,0,0,5.772.875A50.476,50.476,0,0,0,21.9,40.915c-2.589,2.554-5.213,4.3-7.347,4.3A2.363,2.363,0,0,1,13.33,44.9ZM34.6,37.8c.595,3.673.1,6.262-1.329,7.1a2.363,2.363,0,0,1-1.224.315c-2.1,0-4.723-1.714-7.347-4.3a45.987,45.987,0,0,0,3.638-4.548,47.562,47.562,0,0,0,5.772-.875C34.32,36.3,34.46,37.067,34.6,37.8Zm3.149-5.458a20.975,20.975,0,0,1-2.239.735,50.991,50.991,0,0,0-2.1-5.458,44.084,44.084,0,0,0,2.1-5.423c4.828,1.4,7.731,3.5,7.731,5.458C43.241,29.3,41.212,31.05,37.748,32.344Z" transform="translate(-1.4 -8.1)" fill="#61dafb"/>
</svg>
