<svg id="redux" xmlns="http://www.w3.org/2000/svg" width="40" height="40" viewBox="0 0 40 40">
  <path id="Caminho_6" data-name="Caminho 6" d="M0,0H40V40H0Z" fill="none"/>
  <path id="Caminho_7" data-name="Caminho 7" d="M27.716,26.65c-2.812,5.075-7.737,8.49-14.252,9.613a13.99,13.99,0,0,1-3.053.314c-3.75,0-7.187-1.379-8.856-3.638-2.24-3.009-3-9.39,4.384-14.109A21.437,21.437,0,0,0,6.6,21.123a11.027,11.027,0,0,0-3.472,3.594,5.957,5.957,0,0,0,.406,6.965,7.348,7.348,0,0,0,5.2,2.662,15.321,15.321,0,0,0,8.3-1.379c3.972-1.843,6.618-4.044,8.35-7.053a2.437,2.437,0,0,1-.816-1.655,2.67,2.67,0,0,1,2.744-2.6h.106a2.733,2.733,0,0,1,2.869,2.386,2.643,2.643,0,0,1-2.557,2.648Zm8.959-5.572C40.49,24.9,40.593,29.39,39.118,32c-1.375,2.38-5,4.764-9.874,4.764a17.506,17.506,0,0,1-6.562-1.393c.716-.45,1.731-1.17,2.29-1.619a14.463,14.463,0,0,0,5,.943,7.649,7.649,0,0,0,6.971-3.682,5.573,5.573,0,0,0,.1-5.3,12.512,12.512,0,0,0-5.4-5.751,21.241,21.241,0,0,0-10.856-2.921h-.916a2.893,2.893,0,0,1-2.5,1.528h-.1a2.7,2.7,0,0,1-2.818-2.477,2.677,2.677,0,0,1,2.724-2.557h.1a2.876,2.876,0,0,1,2.5,1.349h.816c6.5,0,12.206,2.2,16.068,6.2ZM10.817,27.423a1.834,1.834,0,0,1,.356-1.3C8.323,21.76,6.8,16.235,9.139,10.484A11.372,11.372,0,0,1,19.623,3.24c4.887,0,9.978,3.776,10.587,11.053-.762-.223-1.875-.552-2.544-.673-.166-2.38-2.444-8.311-7.84-8.223-1.934.047-4.784.855-6.25,2.516a11.27,11.27,0,0,0-3.012,6.965,14.926,14.926,0,0,0,2.647,9.974.965.965,0,0,1,.356-.044h.1a2.714,2.714,0,0,1,2.9,2.47,2.684,2.684,0,0,1-2.8,2.561h-.1a2.726,2.726,0,0,1-2.85-2.425Z" transform="translate(0 0)" fill="#764abc"/>
</svg>
