<svg xmlns="http://www.w3.org/2000/svg" width="40" height="40" viewBox="0 0 40 40">
  <path id="typescript" d="M2,21.41v20H42v-40H2Zm32.234-1.6a4.979,4.979,0,0,1,2.5,1.44,6.585,6.585,0,0,1,.96,1.28c0,.051-1.728,1.219-2.781,1.872-.038.026-.192-.141-.362-.394a2.269,2.269,0,0,0-1.878-1.13c-1.213-.083-1.994.554-1.987,1.6a1.466,1.466,0,0,0,.173.749c.266.554.762.883,2.317,1.555,2.864,1.232,4.09,2.045,4.851,3.2a5.807,5.807,0,0,1,.464,4.877,5.366,5.366,0,0,1-4.426,3.168A12.262,12.262,0,0,1,31.021,38a7.36,7.36,0,0,1-4.061-2.1,7.032,7.032,0,0,1-1.04-1.542,2.989,2.989,0,0,1,.368-.234l1.472-.845,1.149-.666.24.355a5.37,5.37,0,0,0,1.517,1.453,3.708,3.708,0,0,0,3.891-.2,1.738,1.738,0,0,0,.221-2.214c-.32-.445-.96-.819-2.749-1.6a9.9,9.9,0,0,1-3.766-2.317,5.274,5.274,0,0,1-1.1-2,8,8,0,0,1-.07-2.56,4.865,4.865,0,0,1,4.1-3.8,10.131,10.131,0,0,1,3.037.083Zm-9.389,1.677v1.638H19.651V37.919H15.968v-14.8H10.762v-1.6a15.74,15.74,0,0,1,.045-1.651c.019-.026,3.2-.038,7.04-.032h6.979Z" transform="translate(-2 -1.41)" fill="#007acc"/>
</svg>
