<svg xmlns="http://www.w3.org/2000/svg" width="22" height="22" viewBox="0 0 32 32">
  <path id="whatsapp" d="M19,3A15.976,15.976,0,0,0,5.281,27.2L3.141,35l7.969-2.089A16,16,0,1,0,19,3Zm-5.479,8.536c.26,0,.531,0,.76.01.287.005.594.026.891.682.354.786,1.125,2.745,1.224,2.943a.719.719,0,0,1,.031.693,2.825,2.825,0,0,1-.391.661c-.2.234-.417.516-.594.688-.2.2-.406.417-.177.812a11.724,11.724,0,0,0,2.2,2.745,10.705,10.705,0,0,0,3.187,1.964c.4.2.625.172.859-.1.234-.255.99-1.151,1.255-1.547s.526-.328.885-.2,2.313,1.089,2.708,1.286.661.3.761.458a3.231,3.231,0,0,1-.229,1.885,3.965,3.965,0,0,1-2.672,1.88c-.729.073-1.411.333-4.755-.984-4.031-1.589-6.573-5.719-6.776-5.984a7.685,7.685,0,0,1-1.615-4.094,4.456,4.456,0,0,1,1.385-3.307A1.458,1.458,0,0,1,13.521,11.536Zm0,0" transform="translate(-3 -3)" fill="#fff"/>
</svg>
