<svg xmlns="http://www.w3.org/2000/svg" width="40" height="38.356" viewBox="0 0 40 38.356">
  <path id="wordpress" d="M21.915,39.959c11.036-.016,19.97-8.6,19.97-19.182,0-10.413-8.893-18.989-19.516-19.17C11.211,1.416,1.888,10.07,1.885,20.564,1.882,31.361,10.776,39.974,21.915,39.959ZM21.883,2.535A18.69,18.69,0,0,1,40.917,21.088c0,9.75-8.669,17.907-19.027,17.909C11.339,39,2.853,30.821,2.854,20.65c0-9.908,8.618-18.112,19.029-18.116Zm-8,9.623c.173.552-.312.744-.827.782l-1.715.125c2.079,5.92,4.126,11.752,6.222,17.72a2.986,2.986,0,0,0,.238-.376c1.151-3.288,2.308-6.573,3.429-9.87a1.631,1.631,0,0,0-.061-1.008c-.593-1.637-1.3-3.239-1.825-4.9-.356-1.134-.828-1.869-2.231-1.737-.239.022-.531-.469-.8-.723.324-.185.645-.524.971-.529q4.285-.063,8.571,0c.328.005.649.354.973.543-.283.247-.528.619-.859.714a9.533,9.533,0,0,1-1.757.179L30.448,30.8c.944-3,1.822-5.748,2.676-8.507a8,8,0,0,0-1.07-6.931,9.639,9.639,0,0,1-1.158-2,5.5,5.5,0,0,1-.347-2.542c.24-1.375,1.344-2.058,2.838-2.189C25.212,1.381,12.364,3.977,7.63,11.858c1.822-.08,3.562-.186,5.3-.209A1.2,1.2,0,0,1,13.886,12.158Zm3.258,24a2.714,2.714,0,0,0-.07.4,18.191,18.191,0,0,0,10.516-.273l-5.4-14.146c-1.729,4.8-3.387,9.41-5.043,14.018Zm-2.723-.64L6.281,14.172C2.608,21.028,5.4,31.49,14.421,35.516ZM39.029,21.8c.258-3.242-.912-7.731-1.922-8.349a19.38,19.38,0,0,1-.392,3.728c-.843,2.849-1.873,5.647-2.865,8.454-1.079,3.051-2.2,6.088-3.3,9.131C35.728,31.83,38.576,27.5,39.029,21.8Z" transform="translate(-1.885 -1.603)" fill="#494949" fill-rule="evenodd"/>
</svg>
