<svg xmlns="http://www.w3.org/2000/svg" width="60.134" height="60.039" viewBox="0 0 40.134 40.039">
  <path id="xd" d="M41.134,1.733c0-.669,0-.733-.637-.733H1.8c-.637,0-.8.064-.8.7V40.4c0,.637.1.637.7.637H40.5c.51,0,.637-.127.637-.637-.032-6.434,0-12.9,0-19.334ZM19.379,30.623l-3.09-6.944L13.04,30.623H9.473l4.619-9.333-4.3-9.874,3.663.032,2.707,6.466,3.313-6.5h3.44l-4.65,9.365,4.619,9.842h-3.5ZM33.267,11.766V29.795c0,.478-.064.764-.541.8a16.163,16.163,0,0,1-6.657-.032,5.159,5.159,0,0,1-3.854-5.128c-.127-3.185,1.083-5.383,3.44-6.4a9.091,9.091,0,0,1,4.65-.51V11.448h2.962ZM27.055,28.138a7.168,7.168,0,0,0,3.185,0v-6.37a.46.46,0,0,0-.223-.319,5.347,5.347,0,0,0-3.5.414A3.55,3.55,0,0,0,24.889,25.4a2.838,2.838,0,0,0,2.166,2.739Z" transform="translate(-1 -1)" fill="#dd80bc"/>
</svg>
